<svg width="24" height="18" viewBox="0 0 24 18" fill="none" xmlns="http://www.w3.org/2000/svg">
<path d="M13.6364 10.6875C12.7273 10.6875 11.9545 10.3594 11.3182 9.70312C10.6818 9.04688 10.3636 8.25 10.3636 7.3125C10.3636 6.375 10.6818 5.57812 11.3182 4.92188C11.9545 4.26562 12.7273 3.9375 13.6364 3.9375C14.5455 3.9375 15.3182 4.26562 15.9545 4.92188C16.5909 5.57812 16.9091 6.375 16.9091 7.3125C16.9091 8.25 16.5909 9.04688 15.9545 9.70312C15.3182 10.3594 14.5455 10.6875 13.6364 10.6875ZM4.90909 14.625C4.45909 14.625 4.07386 14.4598 3.75341 14.1293C3.43295 13.7988 3.27273 13.4016 3.27273 12.9375V1.6875C3.27273 1.22344 3.43295 0.826172 3.75341 0.495703C4.07386 0.165234 4.45909 0 4.90909 0H22.3636C22.8136 0 23.1989 0.165234 23.5193 0.495703C23.8398 0.826172 24 1.22344 24 1.6875V12.9375C24 13.4016 23.8398 13.7988 23.5193 14.1293C23.1989 14.4598 22.8136 14.625 22.3636 14.625H4.90909ZM7.63636 12.9375H19.6364C19.6364 12.15 19.9 11.4844 20.4273 10.9406C20.9545 10.3969 21.6 10.125 22.3636 10.125V4.5C21.6 4.5 20.9545 4.22813 20.4273 3.68437C19.9 3.14062 19.6364 2.475 19.6364 1.6875H7.63636C7.63636 2.475 7.37273 3.14062 6.84545 3.68437C6.31818 4.22813 5.67273 4.5 4.90909 4.5V10.125C5.67273 10.125 6.31818 10.3969 6.84545 10.9406C7.37273 11.4844 7.63636 12.15 7.63636 12.9375ZM20.7273 18H1.63636C1.18636 18 0.801136 17.8348 0.480682 17.5043C0.160227 17.1738 0 16.7766 0 16.3125V3.375H1.63636V16.3125H20.7273V18Z" fill="#B3B3B3"/>
</svg>
