<svg width="1558" height="240" viewBox="0 0 1558 240" fill="none" xmlns="http://www.w3.org/2000/svg">
<path d="M2.4431 94.4718V86.8741L9.20525 85.5716V40.2026L2.4431 38.9001V31.259H53.0066V48.5818H43.2342L42.667 41.0275H21.9443V58.437H44.1939V68.2055H21.9443V85.5716L28.7501 86.8741V94.4718H2.4431Z" fill="#0F0F0F"/>
<path d="M78.3973 95.3835C73.7438 95.3835 69.7447 94.3705 66.4 92.3444C63.0553 90.3184 60.4958 87.5109 58.7217 83.9219C56.9475 80.3039 56.0604 76.1505 56.0604 71.4617V70.5499C56.0604 65.89 56.9475 61.7656 58.7217 58.1766C60.4958 54.5586 63.0407 51.7366 66.3564 49.7106C69.7011 47.6556 73.6857 46.6281 78.3101 46.6281C82.9927 46.6281 86.9918 47.6556 90.3075 49.7106C93.6231 51.7366 96.168 54.5441 97.9421 58.1331C99.7163 61.7221 100.603 65.8611 100.603 70.5499V71.4617C100.603 76.1505 99.7163 80.3039 97.9421 83.9219C96.168 87.5109 93.6231 90.3184 90.3075 92.3444C86.9918 94.3705 83.0218 95.3835 78.3973 95.3835ZM78.3973 85.6585C80.6078 85.6585 82.411 85.0651 83.8071 83.8784C85.2031 82.6918 86.2356 81.042 86.9046 78.9291C87.5735 76.7873 87.908 74.2981 87.908 71.4617V70.5499C87.908 67.7713 87.5735 65.3256 86.9046 63.2127C86.2356 61.0709 85.1886 59.4067 83.7634 58.22C82.3674 57.0043 80.5496 56.3965 78.3101 56.3965C76.1288 56.3965 74.3255 57.0043 72.9004 58.22C71.4752 59.4067 70.4282 61.0709 69.7592 63.2127C69.1194 65.3256 68.7995 67.7713 68.7995 70.5499V71.4617C68.7995 74.2981 69.1194 76.7873 69.7592 78.9291C70.4282 81.0709 71.4752 82.7352 72.9004 83.9219C74.3255 85.0796 76.1578 85.6585 78.3973 85.6585Z" fill="#0F0F0F"/>
<path d="M107.278 94.4718V86.8741L113.386 85.5716V56.4399L106.624 55.1375V47.4964H125.253L125.732 53.314L125.82 54.356C126.983 51.809 128.423 49.8842 130.139 48.5818C131.855 47.2793 133.905 46.6281 136.29 46.6281C137.046 46.6281 137.875 46.7004 138.777 46.8452C139.678 46.9609 140.478 47.1201 141.176 47.3227L139.824 59.0014L133.498 58.6541C131.695 58.5673 130.226 58.8712 129.092 59.5658C127.986 60.2605 126.998 61.259 126.125 62.5615V85.5716L132.233 86.8741V94.4718H107.278Z" fill="#0F0F0F"/>
<path d="M164.56 95.3835C160.168 95.3835 156.78 94.1823 154.395 91.78C152.039 89.3777 150.861 85.5716 150.861 80.3618V56.3965H144.361V47.4964H150.861V35.9913H163.557V47.4964H172.239V56.3965H163.557V80.3184C163.557 82.1418 163.935 83.4443 164.691 84.2258C165.476 85.0072 166.538 85.398 167.876 85.398C168.603 85.398 169.359 85.3546 170.144 85.2677C170.959 85.152 171.657 85.0362 172.239 84.9204L173.329 94.081C172.02 94.4573 170.595 94.7612 169.054 94.9928C167.541 95.2533 166.044 95.3835 164.56 95.3835Z" fill="#0F0F0F"/>
<path d="M198.153 95.3835C193.179 95.3835 189.268 93.8206 186.417 90.6946C183.596 87.5398 182.185 82.6483 182.185 76.0203V56.4399L176.994 55.1375V47.4964H194.925V76.1071C194.925 79.4645 195.506 81.8813 196.67 83.3575C197.862 84.8046 199.651 85.5282 202.036 85.5282C203.926 85.5282 205.599 85.1664 207.053 84.4428C208.507 83.6903 209.699 82.6339 210.63 81.2735V56.4399L205.002 55.1375V47.4964H223.369V85.5716L229.041 86.8741V94.4718H212.201L211.328 88.5239C209.845 90.7236 207.983 92.4168 205.744 93.6035C203.504 94.7902 200.974 95.3835 198.153 95.3835Z" fill="#0F0F0F"/>
<path d="M233.316 94.4718V86.8741L239.424 85.5716V56.4399L232.662 55.1375V47.4964H251.29L251.857 54.2258C253.428 51.8234 255.362 49.9566 257.66 48.6252C259.987 47.2938 262.633 46.6281 265.6 46.6281C270.283 46.6281 273.947 48.1187 276.594 51.0999C279.241 54.081 280.564 58.7554 280.564 65.123V85.5716L286.672 86.8741V94.4718H262.328V86.8741L267.781 85.5716V65.1664C267.781 62.0116 267.156 59.7829 265.905 58.4805C264.655 57.1491 262.793 56.4834 260.321 56.4834C258.489 56.4834 256.889 56.8741 255.522 57.6556C254.184 58.4081 253.064 59.4935 252.163 60.9117V85.5716L257.311 86.8741V94.4718H233.316Z" fill="#0F0F0F"/>
<path d="M312.935 95.3835C308.427 95.3835 304.486 94.3994 301.112 92.4313C297.738 90.4342 295.121 87.699 293.259 84.2258C291.427 80.7525 290.511 76.7873 290.511 72.33V70.5933C290.511 65.9334 291.383 61.809 293.128 58.22C294.873 54.602 297.331 51.7656 300.501 49.7106C303.701 47.6266 307.467 46.5991 311.801 46.6281C316.076 46.6281 319.668 47.4674 322.577 49.1462C325.485 50.8249 327.695 53.2417 329.208 56.3965C330.72 59.5514 331.476 63.3719 331.476 67.8582V74.7612H303.73L303.642 75.0217C303.817 77.0767 304.326 78.9146 305.169 80.5355C306.042 82.1274 307.264 83.3864 308.834 84.3126C310.405 85.2098 312.31 85.6585 314.549 85.6585C316.876 85.6585 319.043 85.369 321.05 84.7902C323.085 84.1823 325.063 83.2996 326.983 82.1418L330.429 89.9566C328.481 91.5195 326.023 92.822 323.056 93.864C320.119 94.877 316.745 95.3835 312.935 95.3835ZM303.817 66.3821H319.566V65.2533C319.566 63.343 319.304 61.7077 318.781 60.3473C318.287 58.958 317.472 57.8871 316.338 57.1346C315.233 56.3821 313.793 56.0058 312.019 56.0058C310.332 56.0058 308.907 56.4544 307.743 57.3517C306.58 58.22 305.664 59.4211 304.995 60.9551C304.355 62.4891 303.919 64.2258 303.686 66.165L303.817 66.3821Z" fill="#0F0F0F"/>
<path d="M337.453 49.6672V26.7439H346.877V37.8148L343.081 49.6672H337.453Z" fill="#0F0F0F"/>
<path d="M369.999 95.3835C366.48 95.3835 363.193 95.0507 360.139 94.385C357.114 93.7193 354.206 92.7641 351.414 91.5195L351.283 78.2344H360.139L361.841 85.0072C362.829 85.4993 363.906 85.89 365.069 86.1795C366.261 86.4689 367.614 86.6136 369.126 86.6136C371.977 86.6136 373.983 86.1505 375.147 85.2243C376.31 84.2981 376.892 83.1404 376.892 81.7511C376.892 80.4486 376.267 79.3054 375.016 78.3213C373.794 77.3083 371.337 76.4255 367.643 75.6729C362.059 74.5152 357.943 72.7207 355.297 70.2894C352.65 67.8582 351.327 64.7467 351.327 60.9551C351.327 58.3502 351.981 55.9768 353.29 53.835C354.628 51.6932 356.649 49.9711 359.354 48.6686C362.088 47.3661 365.578 46.7149 369.824 46.7149C373.373 46.7149 376.616 47.0622 379.553 47.7569C382.52 48.4226 385.006 49.3054 387.013 50.4052L387.144 63.2562H378.332L376.979 57.0912C376.194 56.5123 375.263 56.0781 374.187 55.7887C373.14 55.4993 371.947 55.3546 370.61 55.3546C368.37 55.3546 366.654 55.8032 365.462 56.7004C364.269 57.5977 363.673 58.7554 363.673 60.1737C363.673 60.9841 363.877 61.7366 364.284 62.4313C364.72 63.1259 365.563 63.7771 366.814 64.385C368.065 64.9928 369.882 65.5716 372.267 66.1216C378.113 67.453 382.374 69.233 385.05 71.4617C387.726 73.6614 389.064 76.7583 389.064 80.7525C389.064 85.123 387.464 88.6541 384.265 91.3459C381.095 94.0376 376.339 95.3835 369.999 95.3835Z" fill="#0F0F0F"/>
<path d="M445.997 95.3835C439.685 95.3835 434.305 94.081 429.855 91.4761C425.405 88.8712 421.987 85.2533 419.602 80.6223C417.247 75.9913 416.069 70.6223 416.069 64.5152V62.3444C416.069 56.0347 417.247 50.4776 419.602 45.6729C421.958 40.8683 425.289 37.1201 429.593 34.4284C433.927 31.7077 439.045 30.3473 444.95 30.3473C449.516 30.3473 453.806 30.9696 457.82 32.2142C461.833 33.4588 465.323 35.3256 468.29 37.8148V51.8379H458.867L457.078 43.3719C455.944 42.3878 454.417 41.6064 452.497 41.0275C450.578 40.4197 448.382 40.1158 445.909 40.1158C442.361 40.1158 439.293 41.0564 436.704 42.9378C434.145 44.7902 432.182 47.3806 430.815 50.7091C429.448 54.0087 428.764 57.8582 428.764 62.2576V64.5152C428.764 68.7988 429.433 72.5326 430.771 75.7164C432.138 78.8712 434.13 81.3169 436.748 83.0535C439.365 84.7902 442.579 85.6585 446.389 85.6585C448.629 85.6585 450.679 85.4559 452.541 85.0507C454.431 84.6165 455.987 84.0955 457.209 83.4877V72.7641L448.134 72.0695V63.1693H469.991V88.741C467.17 90.7381 463.767 92.3444 459.783 93.5601C455.827 94.7757 451.232 95.3835 445.997 95.3835Z" fill="#0F0F0F"/>
<path d="M492.503 95.3835C487.82 95.3835 484.097 94.1389 481.334 91.6498C478.571 89.1317 477.19 85.7164 477.19 81.4038C477.19 78.4515 477.99 75.8611 479.589 73.6324C481.218 71.4038 483.603 69.6527 486.744 68.3792C489.914 67.1056 493.812 66.4689 498.436 66.4689H504.675V62.9957C504.675 60.7381 504.006 58.9146 502.668 57.5253C501.359 56.1071 499.381 55.398 496.735 55.398C495.368 55.398 494.146 55.5716 493.07 55.919C491.994 56.2373 491.005 56.7004 490.103 57.3083L489.1 63.5166H479.938L479.764 51.3169C482.236 49.9276 484.912 48.7988 487.791 47.9305C490.671 47.0622 493.884 46.6281 497.433 46.6281C503.599 46.6281 508.47 48.0608 512.048 50.9262C515.625 53.7627 517.414 57.8292 517.414 63.1259V82.4891C517.414 83.1259 517.414 83.7627 517.414 84.3994C517.443 85.0072 517.501 85.6006 517.588 86.1795L522.518 86.8741V94.4718H506.725C506.405 93.6614 506.085 92.7931 505.765 91.8669C505.445 90.9407 505.213 90.0145 505.067 89.0883C503.555 90.9986 501.766 92.5326 499.701 93.6903C497.665 94.8191 495.266 95.3835 492.503 95.3835ZM495.906 86.0058C497.68 86.0058 499.367 85.6151 500.966 84.8336C502.566 84.0232 503.802 82.9667 504.675 81.6643V74.2402H498.392C495.6 74.2402 493.477 74.877 492.023 76.1505C490.598 77.424 489.885 78.958 489.885 80.7525C489.885 82.4313 490.409 83.7337 491.456 84.6599C492.532 85.5572 494.015 86.0058 495.906 86.0058Z" fill="#0F0F0F"/>
<path d="M526.575 94.4718V86.8741L532.727 85.5716V56.4399L525.921 55.1375V47.4964H544.55L545.073 53.7048C546.586 51.4472 548.476 49.7106 550.745 48.4949C553.042 47.2504 555.689 46.6281 558.685 46.6281C561.709 46.6281 564.298 47.2938 566.45 48.6252C568.632 49.9566 570.26 51.9682 571.336 54.6599C572.791 52.1418 574.681 50.1737 577.008 48.7554C579.335 47.3372 582.069 46.6281 585.21 46.6281C589.863 46.6281 593.528 48.2055 596.204 51.3603C598.909 54.5152 600.261 59.3198 600.261 65.7742V85.5716L606.412 86.8741V94.4718H582.025V86.8741L587.522 85.5716V65.7308C587.522 62.2576 586.94 59.8553 585.777 58.5239C584.643 57.1635 582.985 56.4834 580.803 56.4834C578.826 56.4834 577.153 57.0478 575.786 58.1766C574.419 59.2764 573.431 60.7381 572.82 62.5615V85.5716L577.968 86.8741V94.4718H554.976V86.8741L560.124 85.5716V65.7308C560.124 62.3444 559.543 59.9566 558.379 58.5673C557.245 57.178 555.558 56.4834 553.319 56.4834C551.515 56.4834 549.959 56.8452 548.651 57.5687C547.342 58.2923 546.266 59.3343 545.422 60.6946V85.5716L550.919 86.8741V94.4718H526.575Z" fill="#0F0F0F"/>
<path d="M638.391 95.3835C635.453 95.3835 632.952 94.8191 630.887 93.6903C628.822 92.5326 627.092 90.8683 625.695 88.6975L624.779 94.4718H613.785V35.6874L607.023 34.385V26.7439H626.481V52.4891C627.848 50.6078 629.52 49.1606 631.498 48.1476C633.505 47.1346 635.831 46.6281 638.478 46.6281C642.288 46.6281 645.517 47.6556 648.163 49.7106C650.839 51.7366 652.875 54.602 654.271 58.3068C655.667 62.0116 656.365 66.3676 656.365 71.3748V72.2865C656.365 76.9465 655.667 81.013 654.271 84.4863C652.875 87.9305 650.839 90.6078 648.163 92.5181C645.487 94.4284 642.23 95.3835 638.391 95.3835ZM634.508 85.5282C637.766 85.5282 640.107 84.385 641.532 82.0984C642.957 79.7829 643.67 76.5123 643.67 72.2865V71.3748C643.67 68.3068 643.35 65.6729 642.71 63.4732C642.099 61.2446 641.125 59.5224 639.787 58.3068C638.478 57.0912 636.762 56.4834 634.639 56.4834C632.719 56.4834 631.076 56.932 629.709 57.8292C628.342 58.7265 627.266 59.9421 626.481 61.4761V81.0999C627.353 82.547 628.458 83.6469 629.796 84.3994C631.163 85.152 632.734 85.5282 634.508 85.5282Z" fill="#0F0F0F"/>
<path d="M660.728 94.4718V86.8741L666.879 85.5716V35.6874L660.073 34.385V26.7439H679.618V85.5716L685.77 86.8741V94.4718H660.728Z" fill="#0F0F0F"/>
<path d="M711.684 95.3835C707.176 95.3835 703.235 94.3994 699.861 92.4313C696.487 90.4342 693.87 87.699 692.008 84.2258C690.176 80.7525 689.26 76.7873 689.26 72.33V70.5933C689.26 65.9334 690.132 61.809 691.877 58.22C693.622 54.602 696.08 51.7656 699.25 49.7106C702.45 47.6266 706.216 46.5991 710.55 46.6281C714.825 46.6281 718.417 47.4674 721.325 49.1462C724.234 50.8249 726.444 53.2417 727.957 56.3965C729.469 59.5514 730.225 63.3719 730.225 67.8582V74.7612H702.479L702.391 75.0217C702.566 77.0767 703.075 78.9146 703.918 80.5355C704.791 82.1274 706.012 83.3864 707.583 84.3126C709.154 85.2098 711.059 85.6585 713.298 85.6585C715.625 85.6585 717.792 85.369 719.798 84.7902C721.834 84.1823 723.812 83.2996 725.732 82.1418L729.178 89.9566C727.23 91.5195 724.772 92.822 721.805 93.864C718.868 94.877 715.494 95.3835 711.684 95.3835ZM702.566 66.3821H718.315V65.2533C718.315 63.343 718.053 61.7077 717.53 60.3473C717.035 58.958 716.221 57.8871 715.087 57.1346C713.982 56.3821 712.542 56.0058 710.768 56.0058C709.081 56.0058 707.656 56.4544 706.492 57.3517C705.329 58.22 704.413 59.4211 703.744 60.9551C703.104 62.4891 702.668 64.2258 702.435 66.165L702.566 66.3821Z" fill="#0F0F0F"/>
<path d="M236.981 212.214V204.617L243.743 203.314V157.945L236.981 156.643V149.001H287.544V166.324H277.772L277.205 158.77H256.482V176.179H278.732V185.948H256.482V203.314L263.288 204.617V212.214H236.981Z" fill="#0F0F0F"/>
<path d="M312.935 213.126C308.281 213.126 304.282 212.113 300.938 210.087C297.593 208.061 295.033 205.253 293.259 201.664C291.485 198.046 290.598 193.893 290.598 189.204V188.292C290.598 183.632 291.485 179.508 293.259 175.919C295.033 172.301 297.578 169.479 300.894 167.453C304.239 165.398 308.223 164.37 312.848 164.37C317.53 164.37 321.529 165.398 324.845 167.453C328.161 169.479 330.706 172.287 332.48 175.876C334.254 179.465 335.141 183.603 335.141 188.292V189.204C335.141 193.893 334.254 198.046 332.48 201.664C330.706 205.253 328.161 208.061 324.845 210.087C321.529 212.113 317.559 213.126 312.935 213.126ZM312.935 203.401C315.145 203.401 316.949 202.808 318.345 201.621C319.741 200.434 320.773 198.784 321.442 196.671C322.111 194.53 322.446 192.041 322.446 189.204V188.292C322.446 185.514 322.111 183.068 321.442 180.955C320.773 178.813 319.726 177.149 318.301 175.962C316.905 174.747 315.087 174.139 312.848 174.139C310.666 174.139 308.863 174.747 307.438 175.962C306.013 177.149 304.966 178.813 304.297 180.955C303.657 183.068 303.337 185.514 303.337 188.292V189.204C303.337 192.041 303.657 194.53 304.297 196.671C304.966 198.813 306.013 200.478 307.438 201.664C308.863 202.822 310.695 203.401 312.935 203.401Z" fill="#0F0F0F"/>
<path d="M341.816 212.214V204.617L347.924 203.314V174.182L341.162 172.88V165.239H359.79L360.27 171.056L360.357 172.098C361.521 169.551 362.96 167.627 364.676 166.324C366.392 165.022 368.443 164.37 370.828 164.37C371.584 164.37 372.413 164.443 373.314 164.588C374.216 164.703 375.016 164.863 375.714 165.065L374.362 176.744L368.036 176.397C366.232 176.31 364.764 176.614 363.629 177.308C362.524 178.003 361.535 179.001 360.663 180.304V203.314L366.77 204.617V212.214H341.816Z" fill="#0F0F0F"/>
<path d="M399.098 213.126C394.706 213.126 391.318 211.925 388.933 209.522C386.577 207.12 385.399 203.314 385.399 198.104V174.139H378.899V165.239H385.399V153.734H398.094V165.239H406.776V174.139H398.094V198.061C398.094 199.884 398.473 201.187 399.229 201.968C400.014 202.75 401.076 203.14 402.414 203.14C403.141 203.14 403.897 203.097 404.682 203.01C405.496 202.894 406.195 202.779 406.776 202.663L407.867 211.823C406.558 212.2 405.133 212.504 403.591 212.735C402.079 212.996 400.581 213.126 399.098 213.126Z" fill="#0F0F0F"/>
<path d="M432.691 213.126C427.717 213.126 423.805 211.563 420.955 208.437C418.134 205.282 416.723 200.391 416.723 193.763V174.182L411.532 172.88V165.239H429.462V193.849C429.462 197.207 430.044 199.624 431.207 201.1C432.4 202.547 434.188 203.271 436.573 203.271C438.464 203.271 440.136 202.909 441.59 202.185C443.045 201.433 444.237 200.376 445.168 199.016V174.182L439.54 172.88V165.239H457.907V203.314L463.578 204.617V212.214H446.738L445.866 206.266C444.383 208.466 442.521 210.159 440.282 211.346C438.042 212.533 435.512 213.126 432.691 213.126Z" fill="#0F0F0F"/>
<path d="M467.854 212.214V204.617L473.961 203.314V174.182L467.199 172.88V165.239H485.828L486.395 171.968C487.966 169.566 489.9 167.699 492.197 166.368C494.524 165.036 497.171 164.37 500.138 164.37C504.82 164.37 508.485 165.861 511.132 168.842C513.778 171.823 515.102 176.498 515.102 182.865V203.314L521.209 204.617V212.214H496.866V204.617L502.319 203.314V182.909C502.319 179.754 501.694 177.525 500.443 176.223C499.192 174.891 497.331 174.226 494.859 174.226C493.026 174.226 491.427 174.617 490.06 175.398C488.722 176.151 487.602 177.236 486.7 178.654V203.314L491.848 204.617V212.214H467.854Z" fill="#0F0F0F"/>
<path d="M547.473 213.126C542.965 213.126 539.024 212.142 535.65 210.174C532.276 208.177 529.658 205.441 527.797 201.968C525.965 198.495 525.048 194.53 525.048 190.072V188.336C525.048 183.676 525.921 179.551 527.666 175.962C529.411 172.344 531.869 169.508 535.039 167.453C538.238 165.369 542.005 164.342 546.338 164.37C550.614 164.37 554.206 165.21 557.114 166.889C560.023 168.567 562.233 170.984 563.745 174.139C565.258 177.294 566.014 181.114 566.014 185.601V192.504H538.267L538.18 192.764C538.355 194.819 538.864 196.657 539.707 198.278C540.58 199.87 541.801 201.129 543.372 202.055C544.942 202.952 546.847 203.401 549.087 203.401C551.414 203.401 553.58 203.111 555.587 202.533C557.623 201.925 559.601 201.042 561.52 199.884L564.967 207.699C563.018 209.262 560.561 210.564 557.594 211.606C554.657 212.619 551.283 213.126 547.473 213.126ZM538.355 184.124H554.104V182.996C554.104 181.085 553.842 179.45 553.319 178.09C552.824 176.7 552.01 175.63 550.876 174.877C549.77 174.124 548.331 173.748 546.556 173.748C544.87 173.748 543.444 174.197 542.281 175.094C541.118 175.962 540.201 177.164 539.533 178.698C538.893 180.232 538.456 181.968 538.224 183.907L538.355 184.124Z" fill="#0F0F0F"/>
<path d="M571.991 167.41V144.486H581.414V155.557L577.619 167.41H571.991Z" fill="#0F0F0F"/>
<path d="M604.536 213.126C601.017 213.126 597.731 212.793 594.677 212.127C591.652 211.462 588.744 210.507 585.951 209.262L585.821 195.977H594.677L596.378 202.75C597.367 203.242 598.443 203.632 599.607 203.922C600.799 204.211 602.152 204.356 603.664 204.356C606.514 204.356 608.521 203.893 609.684 202.967C610.848 202.041 611.43 200.883 611.43 199.493C611.43 198.191 610.804 197.048 609.554 196.064C608.332 195.051 605.874 194.168 602.181 193.415C596.596 192.258 592.481 190.463 589.834 188.032C587.188 185.601 585.864 182.489 585.864 178.698C585.864 176.093 586.519 173.719 587.827 171.577C589.165 169.436 591.187 167.713 593.892 166.411C596.625 165.109 600.116 164.457 604.362 164.457C607.91 164.457 611.153 164.805 614.091 165.499C617.057 166.165 619.544 167.048 621.551 168.148L621.682 180.999H612.869L611.517 174.834C610.731 174.255 609.801 173.821 608.725 173.531C607.678 173.242 606.485 173.097 605.147 173.097C602.908 173.097 601.192 173.546 599.999 174.443C598.807 175.34 598.211 176.498 598.211 177.916C598.211 178.726 598.414 179.479 598.821 180.174C599.258 180.868 600.101 181.52 601.352 182.127C602.602 182.735 604.42 183.314 606.805 183.864C612.651 185.195 616.912 186.975 619.588 189.204C622.263 191.404 623.601 194.501 623.601 198.495C623.601 202.865 622.002 206.397 618.802 209.088C615.632 211.78 610.877 213.126 604.536 213.126Z" fill="#0F0F0F"/>
<path d="M680.534 213.126C674.223 213.126 668.842 211.823 664.392 209.219C659.942 206.614 656.525 202.996 654.14 198.365C651.784 193.734 650.606 188.365 650.606 182.258V180.087C650.606 173.777 651.784 168.22 654.14 163.415C656.496 158.611 659.826 154.863 664.131 152.171C668.464 149.45 673.583 148.09 679.487 148.09C684.054 148.09 688.344 148.712 692.357 149.957C696.371 151.201 699.861 153.068 702.828 155.557V169.58H693.404L691.616 161.114C690.481 160.13 688.954 159.349 687.035 158.77C685.115 158.162 682.919 157.858 680.447 157.858C676.899 157.858 673.83 158.799 671.242 160.68C668.682 162.533 666.719 165.123 665.352 168.452C663.985 171.751 663.302 175.601 663.302 180V182.258C663.302 186.541 663.971 190.275 665.309 193.459C666.676 196.614 668.668 199.059 671.285 200.796C673.903 202.533 677.117 203.401 680.927 203.401C683.166 203.401 685.217 203.198 687.078 202.793C688.969 202.359 690.525 201.838 691.746 201.23V190.507L682.672 189.812V180.912H704.529V206.483C701.708 208.48 698.305 210.087 694.32 211.302C690.365 212.518 685.77 213.126 680.534 213.126Z" fill="#0F0F0F"/>
<path d="M727.041 213.126C722.358 213.126 718.635 211.881 715.872 209.392C713.109 206.874 711.727 203.459 711.727 199.146C711.727 196.194 712.527 193.603 714.127 191.375C715.756 189.146 718.141 187.395 721.282 186.122C724.452 184.848 728.349 184.211 732.974 184.211H739.212V180.738C739.212 178.48 738.543 176.657 737.206 175.268C735.897 173.849 733.919 173.14 731.272 173.14C729.905 173.14 728.684 173.314 727.608 173.661C726.532 173.98 725.543 174.443 724.641 175.051L723.638 181.259H714.476L714.301 169.059C716.774 167.67 719.449 166.541 722.329 165.673C725.208 164.805 728.422 164.37 731.97 164.37C738.136 164.37 743.008 165.803 746.585 168.669C750.163 171.505 751.951 175.572 751.951 180.868V200.232C751.951 200.868 751.951 201.505 751.951 202.142C751.98 202.75 752.039 203.343 752.126 203.922L757.056 204.617V212.214H741.263C740.943 211.404 740.623 210.535 740.303 209.609C739.983 208.683 739.75 207.757 739.605 206.831C738.093 208.741 736.304 210.275 734.239 211.433C732.203 212.562 729.804 213.126 727.041 213.126ZM730.443 203.748C732.218 203.748 733.904 203.357 735.504 202.576C737.104 201.766 738.34 200.709 739.212 199.407V191.983H732.93C730.138 191.983 728.015 192.619 726.561 193.893C725.135 195.166 724.423 196.7 724.423 198.495C724.423 200.174 724.946 201.476 725.993 202.402C727.07 203.3 728.553 203.748 730.443 203.748Z" fill="#0F0F0F"/>
<path d="M761.113 212.214V204.617L767.264 203.314V174.182L760.459 172.88V165.239H779.087L779.611 171.447C781.123 169.19 783.014 167.453 785.282 166.237C787.58 164.993 790.227 164.37 793.222 164.37C796.247 164.37 798.836 165.036 800.988 166.368C803.169 167.699 804.798 169.711 805.874 172.402C807.328 169.884 809.219 167.916 811.546 166.498C813.872 165.08 816.606 164.37 819.747 164.37C824.401 164.37 828.066 165.948 830.741 169.103C833.446 172.258 834.799 177.062 834.799 183.517V203.314L840.95 204.617V212.214H816.563V204.617L822.06 203.314V183.473C822.06 180 821.478 177.598 820.315 176.266C819.18 174.906 817.522 174.226 815.341 174.226C813.363 174.226 811.691 174.79 810.324 175.919C808.957 177.019 807.968 178.48 807.357 180.304V203.314L812.505 204.617V212.214H789.514V204.617L794.662 203.314V183.473C794.662 180.087 794.08 177.699 792.917 176.31C791.783 174.92 790.096 174.226 787.856 174.226C786.053 174.226 784.497 174.588 783.188 175.311C781.879 176.035 780.803 177.077 779.96 178.437V203.314L785.457 204.617V212.214H761.113Z" fill="#0F0F0F"/>
<path d="M872.928 213.126C869.991 213.126 867.49 212.562 865.425 211.433C863.36 210.275 861.629 208.611 860.233 206.44L859.317 212.214H848.323V153.43L841.561 152.127V144.486H861.018V170.232C862.385 168.35 864.058 166.903 866.035 165.89C868.042 164.877 870.369 164.37 873.016 164.37C876.826 164.37 880.054 165.398 882.701 167.453C885.377 169.479 887.413 172.344 888.809 176.049C890.205 179.754 890.903 184.11 890.903 189.117V190.029C890.903 194.689 890.205 198.755 888.809 202.229C887.413 205.673 885.377 208.35 882.701 210.26C880.025 212.171 876.768 213.126 872.928 213.126ZM869.046 203.271C872.303 203.271 874.644 202.127 876.07 199.841C877.495 197.525 878.207 194.255 878.207 190.029V189.117C878.207 186.049 877.887 183.415 877.248 181.216C876.637 178.987 875.662 177.265 874.325 176.049C873.016 174.834 871.3 174.226 869.177 174.226C867.257 174.226 865.614 174.674 864.247 175.572C862.88 176.469 861.804 177.685 861.018 179.219V198.842C861.891 200.289 862.996 201.389 864.334 202.142C865.701 202.894 867.272 203.271 869.046 203.271Z" fill="#0F0F0F"/>
<path d="M895.265 212.214V204.617L901.417 203.314V153.43L894.611 152.127V144.486H914.156V203.314L920.307 204.617V212.214H895.265Z" fill="#0F0F0F"/>
<path d="M946.222 213.126C941.713 213.126 937.772 212.142 934.399 210.174C931.025 208.177 928.407 205.441 926.546 201.968C924.713 198.495 923.797 194.53 923.797 190.072V188.336C923.797 183.676 924.67 179.551 926.415 175.962C928.16 172.344 930.618 169.508 933.788 167.453C936.987 165.369 940.754 164.342 945.087 164.37C949.363 164.37 952.955 165.21 955.863 166.889C958.771 168.567 960.982 170.984 962.494 174.139C964.007 177.294 964.763 181.114 964.763 185.601V192.504H937.016L936.929 192.764C937.104 194.819 937.612 196.657 938.456 198.278C939.328 199.87 940.55 201.129 942.121 202.055C943.691 202.952 945.596 203.401 947.836 203.401C950.162 203.401 952.329 203.111 954.336 202.533C956.372 201.925 958.35 201.042 960.269 199.884L963.716 207.699C961.767 209.262 959.31 210.564 956.343 211.606C953.405 212.619 950.032 213.126 946.222 213.126ZM937.104 184.124H952.853V182.996C952.853 181.085 952.591 179.45 952.067 178.09C951.573 176.7 950.759 175.63 949.624 174.877C948.519 174.124 947.08 173.748 945.305 173.748C943.618 173.748 942.193 174.197 941.03 175.094C939.867 175.962 938.95 177.164 938.281 178.698C937.642 180.232 937.205 181.968 936.973 183.907L937.104 184.124Z" fill="#0F0F0F"/>
<path d="M778.651 94.4718V86.8741L785.413 85.5716V40.2026L778.651 38.9001V31.259H829.214V48.5818H819.442L818.875 41.0275H798.152V58.437H820.402V68.2055H798.152V85.5716L804.958 86.8741V94.4718H778.651Z" fill="#0F0F0F"/>
<path d="M854.605 95.3835C849.952 95.3835 845.953 94.3705 842.608 92.3444C839.263 90.3184 836.704 87.5109 834.93 83.9219C833.155 80.3039 832.268 76.1505 832.268 71.4617V70.5499C832.268 65.89 833.155 61.7656 834.93 58.1766C836.704 54.5586 839.249 51.7366 842.564 49.7106C845.909 47.6556 849.894 46.6281 854.518 46.6281C859.201 46.6281 863.2 47.6556 866.515 49.7106C869.831 51.7366 872.376 54.5441 874.15 58.1331C875.924 61.7221 876.811 65.8611 876.811 70.5499V71.4617C876.811 76.1505 875.924 80.3039 874.15 83.9219C872.376 87.5109 869.831 90.3184 866.515 92.3444C863.2 94.3705 859.23 95.3835 854.605 95.3835ZM854.605 85.6585C856.816 85.6585 858.619 85.0651 860.015 83.8784C861.411 82.6918 862.444 81.042 863.112 78.9291C863.781 76.7873 864.116 74.2981 864.116 71.4617V70.5499C864.116 67.7713 863.781 65.3256 863.112 63.2127C862.444 61.0709 861.396 59.4067 859.971 58.22C858.575 57.0043 856.757 56.3965 854.518 56.3965C852.337 56.3965 850.533 57.0043 849.108 58.22C847.683 59.4067 846.636 61.0709 845.967 63.2127C845.327 65.3256 845.007 67.7713 845.007 70.5499V71.4617C845.007 74.2981 845.327 76.7873 845.967 78.9291C846.636 81.0709 847.683 82.7352 849.108 83.9219C850.533 85.0796 852.366 85.6585 854.605 85.6585Z" fill="#0F0F0F"/>
<path d="M883.486 94.4718V86.8741L889.594 85.5716V56.4399L882.832 55.1375V47.4964H901.46L901.94 53.314L902.028 54.356C903.191 51.809 904.631 49.8842 906.347 48.5818C908.063 47.2793 910.113 46.6281 912.498 46.6281C913.254 46.6281 914.083 46.7004 914.985 46.8452C915.886 46.9609 916.686 47.1201 917.384 47.3227L916.032 59.0014L909.706 58.6541C907.903 58.5673 906.434 58.8712 905.3 59.5658C904.194 60.2605 903.205 61.259 902.333 62.5615V85.5716L908.441 86.8741V94.4718H883.486Z" fill="#0F0F0F"/>
<path d="M940.768 95.3835C936.376 95.3835 932.988 94.1823 930.603 91.78C928.247 89.3777 927.069 85.5716 927.069 80.3618V56.3965H920.569V47.4964H927.069V35.9913H939.765V47.4964H948.446V56.3965H939.765V80.3184C939.765 82.1418 940.143 83.4443 940.899 84.2258C941.684 85.0072 942.746 85.398 944.084 85.398C944.811 85.398 945.567 85.3546 946.352 85.2677C947.167 85.152 947.865 85.0362 948.446 84.9204L949.537 94.081C948.228 94.4573 946.803 94.7612 945.262 94.9928C943.749 95.2533 942.251 95.3835 940.768 95.3835Z" fill="#0F0F0F"/>
<path d="M974.361 95.3835C969.387 95.3835 965.475 93.8206 962.625 90.6946C959.804 87.5398 958.393 82.6483 958.393 76.0203V56.4399L953.202 55.1375V47.4964H971.132V76.1071C971.132 79.4645 971.714 81.8813 972.877 83.3575C974.07 84.8046 975.859 85.5282 978.244 85.5282C980.134 85.5282 981.806 85.1664 983.261 84.4428C984.715 83.6903 985.907 82.6339 986.838 81.2735V56.4399L981.21 55.1375V47.4964H999.577V85.5716L1005.25 86.8741V94.4718H988.409L987.536 88.5239C986.053 90.7236 984.191 92.4168 981.952 93.6035C979.712 94.7902 977.182 95.3835 974.361 95.3835Z" fill="#0F0F0F"/>
<path d="M1009.52 94.4718V86.8741L1015.63 85.5716V56.4399L1008.87 55.1375V47.4964H1027.5L1028.07 54.2258C1029.64 51.8234 1031.57 49.9566 1033.87 48.6252C1036.19 47.2938 1038.84 46.6281 1041.81 46.6281C1046.49 46.6281 1050.16 48.1187 1052.8 51.0999C1055.45 54.081 1056.77 58.7554 1056.77 65.123V85.5716L1062.88 86.8741V94.4718H1038.54V86.8741L1043.99 85.5716V65.1664C1043.99 62.0116 1043.36 59.7829 1042.11 58.4805C1040.86 57.1491 1039 56.4834 1036.53 56.4834C1034.7 56.4834 1033.1 56.8741 1031.73 57.6556C1030.39 58.4081 1029.27 59.4935 1028.37 60.9117V85.5716L1033.52 86.8741V94.4718H1009.52Z" fill="#0F0F0F"/>
<path d="M1089.14 95.3835C1084.63 95.3835 1080.69 94.3994 1077.32 92.4313C1073.95 90.4342 1071.33 87.699 1069.47 84.2258C1067.63 80.7525 1066.72 76.7873 1066.72 72.33V70.5933C1066.72 65.9334 1067.59 61.809 1069.34 58.22C1071.08 54.602 1073.54 51.7656 1076.71 49.7106C1079.91 47.6266 1083.67 46.5991 1088.01 46.6281C1092.28 46.6281 1095.88 47.4674 1098.78 49.1462C1101.69 50.8249 1103.9 53.2417 1105.42 56.3965C1106.93 59.5514 1107.68 63.3719 1107.68 67.8582V74.7612H1079.94L1079.85 75.0217C1080.02 77.0767 1080.53 78.9146 1081.38 80.5355C1082.25 82.1274 1083.47 83.3864 1085.04 84.3126C1086.61 85.2098 1088.52 85.6585 1090.76 85.6585C1093.08 85.6585 1095.25 85.369 1097.26 84.7902C1099.29 84.1823 1101.27 83.2996 1103.19 82.1418L1106.64 89.9566C1104.69 91.5195 1102.23 92.822 1099.26 93.864C1096.33 94.877 1092.95 95.3835 1089.14 95.3835ZM1080.02 66.3821H1095.77V65.2533C1095.77 63.343 1095.51 61.7077 1094.99 60.3473C1094.49 58.958 1093.68 57.8871 1092.55 57.1346C1091.44 56.3821 1090 56.0058 1088.23 56.0058C1086.54 56.0058 1085.11 56.4544 1083.95 57.3517C1082.79 58.22 1081.87 59.4211 1081.2 60.9551C1080.56 62.4891 1080.13 64.2258 1079.89 66.165L1080.02 66.3821Z" fill="#0F0F0F"/>
<path d="M1113.66 49.6672V26.7439H1123.08V37.8148L1119.29 49.6672H1113.66Z" fill="#0F0F0F"/>
<path d="M1146.21 95.3835C1142.69 95.3835 1139.4 95.0507 1136.35 94.385C1133.32 93.7193 1130.41 92.7641 1127.62 91.5195L1127.49 78.2344H1136.35L1138.05 85.0072C1139.04 85.4993 1140.11 85.89 1141.28 86.1795C1142.47 86.4689 1143.82 86.6136 1145.33 86.6136C1148.18 86.6136 1150.19 86.1505 1151.35 85.2243C1152.52 84.2981 1153.1 83.1404 1153.1 81.7511C1153.1 80.4486 1152.47 79.3054 1151.22 78.3213C1150 77.3083 1147.54 76.4255 1143.85 75.6729C1138.27 74.5152 1134.15 72.7207 1131.5 70.2894C1128.86 67.8582 1127.53 64.7467 1127.53 60.9551C1127.53 58.3502 1128.19 55.9768 1129.5 53.835C1130.84 51.6932 1132.86 49.9711 1135.56 48.6686C1138.3 47.3661 1141.79 46.7149 1146.03 46.7149C1149.58 46.7149 1152.82 47.0622 1155.76 47.7569C1158.73 48.4226 1161.21 49.3054 1163.22 50.4052L1163.35 63.2562H1154.54L1153.19 57.0912C1152.4 56.5123 1151.47 56.0781 1150.39 55.7887C1149.35 55.4993 1148.16 55.3546 1146.82 55.3546C1144.58 55.3546 1142.86 55.8032 1141.67 56.7004C1140.48 57.5977 1139.88 58.7554 1139.88 60.1737C1139.88 60.9841 1140.08 61.7366 1140.49 62.4313C1140.93 63.1259 1141.77 63.7771 1143.02 64.385C1144.27 64.9928 1146.09 65.5716 1148.48 66.1216C1154.32 67.453 1158.58 69.233 1161.26 71.4617C1163.93 73.6614 1165.27 76.7583 1165.27 80.7525C1165.27 85.123 1163.67 88.6541 1160.47 91.3459C1157.3 94.0376 1152.55 95.3835 1146.21 95.3835Z" fill="#0F0F0F"/>
<path d="M1222.2 95.3835C1215.89 95.3835 1210.51 94.081 1206.06 91.4761C1201.61 88.8712 1198.2 85.2533 1195.81 80.6223C1193.45 75.9913 1192.28 70.6223 1192.28 64.5152V62.3444C1192.28 56.0347 1193.45 50.4776 1195.81 45.6729C1198.17 40.8683 1201.5 37.1201 1205.8 34.4284C1210.13 31.7077 1215.25 30.3473 1221.16 30.3473C1225.72 30.3473 1230.01 30.9696 1234.03 32.2142C1238.04 33.4588 1241.53 35.3256 1244.5 37.8148V51.8379H1235.07L1233.29 43.3719C1232.15 42.3878 1230.62 41.6064 1228.7 41.0275C1226.79 40.4197 1224.59 40.1158 1222.12 40.1158C1218.57 40.1158 1215.5 41.0564 1212.91 42.9378C1210.35 44.7902 1208.39 47.3806 1207.02 50.7091C1205.66 54.0087 1204.97 57.8582 1204.97 62.2576V64.5152C1204.97 68.7988 1205.64 72.5326 1206.98 75.7164C1208.35 78.8712 1210.34 81.3169 1212.96 83.0535C1215.57 84.7902 1218.79 85.6585 1222.6 85.6585C1224.84 85.6585 1226.89 85.4559 1228.75 85.0507C1230.64 84.6165 1232.2 84.0955 1233.42 83.4877V72.7641L1224.34 72.0695V63.1693H1246.2V88.741C1243.38 90.7381 1239.98 92.3444 1235.99 93.5601C1232.04 94.7757 1227.44 95.3835 1222.2 95.3835Z" fill="#0F0F0F"/>
<path d="M1268.71 95.3835C1264.03 95.3835 1260.31 94.1389 1257.54 91.6498C1254.78 89.1317 1253.4 85.7164 1253.4 81.4038C1253.4 78.4515 1254.2 75.8611 1255.8 73.6324C1257.43 71.4038 1259.81 69.6527 1262.95 68.3792C1266.12 67.1056 1270.02 66.4689 1274.64 66.4689H1280.88V62.9957C1280.88 60.7381 1280.21 58.9146 1278.88 57.5253C1277.57 56.1071 1275.59 55.398 1272.94 55.398C1271.58 55.398 1270.35 55.5716 1269.28 55.919C1268.2 56.2373 1267.21 56.7004 1266.31 57.3083L1265.31 63.5166H1256.15L1255.97 51.3169C1258.44 49.9276 1261.12 48.7988 1264 47.9305C1266.88 47.0622 1270.09 46.6281 1273.64 46.6281C1279.81 46.6281 1284.68 48.0608 1288.26 50.9262C1291.83 53.7627 1293.62 57.8292 1293.62 63.1259V82.4891C1293.62 83.1259 1293.62 83.7627 1293.62 84.3994C1293.65 85.0072 1293.71 85.6006 1293.8 86.1795L1298.73 86.8741V94.4718H1282.93C1282.61 93.6614 1282.29 92.7931 1281.97 91.8669C1281.65 90.9407 1281.42 90.0145 1281.28 89.0883C1279.76 90.9986 1277.97 92.5326 1275.91 93.6903C1273.87 94.8191 1271.47 95.3835 1268.71 95.3835ZM1272.11 86.0058C1273.89 86.0058 1275.57 85.6151 1277.17 84.8336C1278.77 84.0232 1280.01 82.9667 1280.88 81.6643V74.2402H1274.6C1271.81 74.2402 1269.69 74.877 1268.23 76.1505C1266.81 77.424 1266.09 78.958 1266.09 80.7525C1266.09 82.4313 1266.62 83.7337 1267.66 84.6599C1268.74 85.5572 1270.22 86.0058 1272.11 86.0058Z" fill="#0F0F0F"/>
<path d="M1302.78 94.4718V86.8741L1308.93 85.5716V56.4399L1302.13 55.1375V47.4964H1320.76L1321.28 53.7048C1322.79 51.4472 1324.68 49.7106 1326.95 48.4949C1329.25 47.2504 1331.9 46.6281 1334.89 46.6281C1337.92 46.6281 1340.51 47.2938 1342.66 48.6252C1344.84 49.9566 1346.47 51.9682 1347.54 54.6599C1349 52.1418 1350.89 50.1737 1353.22 48.7554C1355.54 47.3372 1358.28 46.6281 1361.42 46.6281C1366.07 46.6281 1369.74 48.2055 1372.41 51.3603C1375.12 54.5152 1376.47 59.3198 1376.47 65.7742V85.5716L1382.62 86.8741V94.4718H1358.23V86.8741L1363.73 85.5716V65.7308C1363.73 62.2576 1363.15 59.8553 1361.98 58.5239C1360.85 57.1635 1359.19 56.4834 1357.01 56.4834C1355.03 56.4834 1353.36 57.0478 1351.99 58.1766C1350.63 59.2764 1349.64 60.7381 1349.03 62.5615V85.5716L1354.18 86.8741V94.4718H1331.18V86.8741L1336.33 85.5716V65.7308C1336.33 62.3444 1335.75 59.9566 1334.59 58.5673C1333.45 57.178 1331.77 56.4834 1329.53 56.4834C1327.72 56.4834 1326.17 56.8452 1324.86 57.5687C1323.55 58.2923 1322.47 59.3343 1321.63 60.6946V85.5716L1327.13 86.8741V94.4718H1302.78Z" fill="#0F0F0F"/>
<path d="M1414.6 95.3835C1411.66 95.3835 1409.16 94.8191 1407.09 93.6903C1405.03 92.5326 1403.3 90.8683 1401.9 88.6975L1400.99 94.4718H1389.99V35.6874L1383.23 34.385V26.7439H1402.69V52.4891C1404.06 50.6078 1405.73 49.1606 1407.71 48.1476C1409.71 47.1346 1412.04 46.6281 1414.69 46.6281C1418.5 46.6281 1421.72 47.6556 1424.37 49.7106C1427.05 51.7366 1429.08 54.602 1430.48 58.3068C1431.87 62.0116 1432.57 66.3676 1432.57 71.3748V72.2865C1432.57 76.9465 1431.87 81.013 1430.48 84.4863C1429.08 87.9305 1427.05 90.6078 1424.37 92.5181C1421.7 94.4284 1418.44 95.3835 1414.6 95.3835ZM1410.72 85.5282C1413.97 85.5282 1416.31 84.385 1417.74 82.0984C1419.17 79.7829 1419.88 76.5123 1419.88 72.2865V71.3748C1419.88 68.3068 1419.56 65.6729 1418.92 63.4732C1418.31 61.2446 1417.33 59.5224 1415.99 58.3068C1414.69 57.0912 1412.97 56.4834 1410.85 56.4834C1408.93 56.4834 1407.28 56.932 1405.92 57.8292C1404.55 58.7265 1403.47 59.9421 1402.69 61.4761V81.0999C1403.56 82.547 1404.67 83.6469 1406 84.3994C1407.37 85.152 1408.94 85.5282 1410.72 85.5282Z" fill="#0F0F0F"/>
<path d="M1436.94 94.4718V86.8741L1443.09 85.5716V35.6874L1436.28 34.385V26.7439H1455.83V85.5716L1461.98 86.8741V94.4718H1436.94Z" fill="#0F0F0F"/>
<path d="M1487.89 95.3835C1483.38 95.3835 1479.44 94.3994 1476.07 92.4313C1472.7 90.4342 1470.08 87.699 1468.22 84.2258C1466.38 80.7525 1465.47 76.7873 1465.47 72.33V70.5933C1465.47 65.9334 1466.34 61.809 1468.09 58.22C1469.83 54.602 1472.29 51.7656 1475.46 49.7106C1478.66 47.6266 1482.42 46.5991 1486.76 46.6281C1491.03 46.6281 1494.62 47.4674 1497.53 49.1462C1500.44 50.8249 1502.65 53.2417 1504.16 56.3965C1505.68 59.5514 1506.43 63.3719 1506.43 67.8582V74.7612H1478.69L1478.6 75.0217C1478.77 77.0767 1479.28 78.9146 1480.13 80.5355C1481 82.1274 1482.22 83.3864 1483.79 84.3126C1485.36 85.2098 1487.27 85.6585 1489.51 85.6585C1491.83 85.6585 1494 85.369 1496.01 84.7902C1498.04 84.1823 1500.02 83.2996 1501.94 82.1418L1505.39 89.9566C1503.44 91.5195 1500.98 92.822 1498.01 93.864C1495.08 94.877 1491.7 95.3835 1487.89 95.3835ZM1478.77 66.3821H1494.52V65.2533C1494.52 63.343 1494.26 61.7077 1493.74 60.3473C1493.24 58.958 1492.43 57.8871 1491.29 57.1346C1490.19 56.3821 1488.75 56.0058 1486.98 56.0058C1485.29 56.0058 1483.86 56.4544 1482.7 57.3517C1481.54 58.22 1480.62 59.4211 1479.95 60.9551C1479.31 62.4891 1478.88 64.2258 1478.64 66.165L1478.77 66.3821Z" fill="#0F0F0F"/>
<path d="M1558 168.804C1557.2 169.587 1556.47 170.468 1555.82 171.447L1555.3 165.239H1536.67V172.88L1543.47 174.182V203.314L1537.32 204.617V212.214H1558V203.748L1556.17 203.314V178.437C1556.69 177.596 1557.3 176.876 1558 176.278V168.804Z" fill="#0F0F0F"/>
<path d="M1013.19 204.617V212.214H1039.5V204.617L1032.69 203.314V185.948H1054.94V176.179H1032.69V158.77H1053.41L1053.98 166.324H1063.75V149.001H1013.19V156.643L1019.95 157.945V203.314L1013.19 204.617Z" fill="#0F0F0F"/>
<path fill-rule="evenodd" clip-rule="evenodd" d="M1077.15 210.087C1080.49 212.113 1084.49 213.126 1089.14 213.126C1093.77 213.126 1097.74 212.113 1101.05 210.087C1104.37 208.061 1106.91 205.253 1108.69 201.664C1110.46 198.046 1111.35 193.893 1111.35 189.204V188.292C1111.35 183.603 1110.46 179.465 1108.69 175.876C1106.91 172.287 1104.37 169.479 1101.05 167.453C1097.74 165.398 1093.74 164.37 1089.06 164.37C1084.43 164.37 1080.45 165.398 1077.1 167.453C1073.79 169.479 1071.24 172.301 1069.47 175.919C1067.69 179.508 1066.81 183.632 1066.81 188.292V189.204C1066.81 193.893 1067.69 198.046 1069.47 201.664C1071.24 205.253 1073.8 208.061 1077.15 210.087ZM1094.55 201.621C1093.16 202.808 1091.35 203.401 1089.14 203.401C1086.9 203.401 1085.07 202.822 1083.65 201.664C1082.22 200.478 1081.17 198.813 1080.5 196.671C1079.86 194.53 1079.54 192.041 1079.54 189.204V188.292C1079.54 185.514 1079.86 183.068 1080.5 180.955C1081.17 178.813 1082.22 177.149 1083.65 175.962C1085.07 174.747 1086.87 174.139 1089.06 174.139C1091.3 174.139 1093.11 174.747 1094.51 175.962C1095.93 177.149 1096.98 178.813 1097.65 180.955C1098.32 183.068 1098.65 185.514 1098.65 188.292V189.204C1098.65 192.041 1098.32 194.53 1097.65 196.671C1096.98 198.784 1095.95 200.434 1094.55 201.621Z" fill="#0F0F0F"/>
<path d="M1118.02 204.617V212.214H1142.98V204.617L1136.87 203.314V180.304C1137.74 179.001 1138.73 178.003 1139.84 177.308C1140.97 176.614 1142.44 176.31 1144.24 176.397L1150.57 176.744L1151.92 165.065C1151.22 164.863 1150.42 164.703 1149.52 164.588C1148.62 164.443 1147.79 164.37 1147.04 164.37C1144.65 164.37 1142.6 165.022 1140.88 166.324C1139.17 167.627 1137.73 169.551 1136.57 172.098L1136.48 171.056L1136 165.239H1117.37V172.88L1124.13 174.182V203.314L1118.02 204.617Z" fill="#0F0F0F"/>
<path d="M1165.14 209.522C1167.53 211.925 1170.91 213.126 1175.31 213.126C1176.79 213.126 1178.29 212.996 1179.8 212.735C1181.34 212.504 1182.77 212.2 1184.07 211.823L1182.98 202.663C1182.4 202.779 1181.7 202.894 1180.89 203.01C1180.1 203.097 1179.35 203.14 1178.62 203.14C1177.28 203.14 1176.22 202.75 1175.44 201.968C1174.68 201.187 1174.3 199.884 1174.3 198.061V174.139H1182.98V165.239H1174.3V153.734H1161.61V165.239H1155.11V174.139H1161.61V198.104C1161.61 203.314 1162.78 207.12 1165.14 209.522Z" fill="#0F0F0F"/>
<path d="M1197.16 208.437C1200.01 211.563 1203.92 213.126 1208.9 213.126C1211.72 213.126 1214.25 212.533 1216.49 211.346C1218.73 210.159 1220.59 208.466 1222.07 206.266L1222.95 212.214H1239.79V204.617L1234.11 203.314V165.239H1215.75V172.88L1221.38 174.182V199.016C1220.44 200.376 1219.25 201.433 1217.8 202.185C1216.34 202.909 1214.67 203.271 1212.78 203.271C1210.4 203.271 1208.61 202.547 1207.42 201.1C1206.25 199.624 1205.67 197.207 1205.67 193.849V165.239H1187.74V172.88L1192.93 174.182V193.763C1192.93 200.391 1194.34 205.282 1197.16 208.437Z" fill="#0F0F0F"/>
<path d="M1244.06 204.617V212.214H1268.06V204.617L1262.91 203.314V178.654C1263.81 177.236 1264.93 176.151 1266.27 175.398C1267.63 174.617 1269.23 174.226 1271.07 174.226C1273.54 174.226 1275.4 174.891 1276.65 176.223C1277.9 177.525 1278.53 179.754 1278.53 182.909V203.314L1273.07 204.617V212.214H1297.42V204.617L1291.31 203.314V182.865C1291.31 176.498 1289.99 171.823 1287.34 168.842C1284.69 165.861 1281.03 164.37 1276.35 164.37C1273.38 164.37 1270.73 165.036 1268.41 166.368C1266.11 167.699 1264.17 169.566 1262.6 171.968L1262.04 165.239H1243.41V172.88L1250.17 174.182V203.314L1244.06 204.617Z" fill="#0F0F0F"/>
<path fill-rule="evenodd" clip-rule="evenodd" d="M1311.86 210.174C1315.23 212.142 1319.17 213.126 1323.68 213.126C1327.49 213.126 1330.86 212.619 1333.8 211.606C1336.77 210.564 1339.23 209.262 1341.17 207.699L1337.73 199.884C1335.81 201.042 1333.83 201.925 1331.8 202.533C1329.79 203.111 1327.62 203.401 1325.29 203.401C1323.06 203.401 1321.15 202.952 1319.58 202.055C1318.01 201.129 1316.79 199.87 1315.91 198.278C1315.07 196.657 1314.56 194.819 1314.39 192.764L1314.48 192.504H1342.22V185.601C1342.22 181.114 1341.47 177.294 1339.95 174.139C1338.44 170.984 1336.23 168.567 1333.32 166.889C1330.41 165.21 1326.82 164.37 1322.55 164.37C1318.21 164.342 1314.45 165.369 1311.25 167.453C1308.08 169.508 1305.62 172.344 1303.87 175.962C1302.13 179.551 1301.26 183.676 1301.26 188.336V190.072C1301.26 194.53 1302.17 198.495 1304 201.968C1305.87 205.441 1308.48 208.177 1311.86 210.174ZM1330.31 184.124H1314.56L1314.43 183.907C1314.66 181.968 1315.1 180.232 1315.74 178.698C1316.41 177.164 1317.33 175.962 1318.49 175.094C1319.65 174.197 1321.08 173.748 1322.76 173.748C1324.54 173.748 1325.98 174.124 1327.08 174.877C1328.22 175.63 1329.03 176.7 1329.53 178.09C1330.05 179.45 1330.31 181.085 1330.31 182.996V184.124Z" fill="#0F0F0F"/>
<path d="M1348.2 167.41H1353.83L1357.62 155.557V144.486H1348.2V167.41Z" fill="#0F0F0F"/>
<path d="M1370.88 212.127C1373.94 212.793 1377.23 213.126 1380.74 213.126C1387.08 213.126 1391.84 211.78 1395.01 209.088C1398.21 206.397 1399.81 202.865 1399.81 198.495C1399.81 194.501 1398.47 191.404 1395.8 189.204C1393.12 186.975 1388.86 185.195 1383.01 183.864C1380.63 183.314 1378.81 182.735 1377.56 182.127C1376.31 181.52 1375.47 180.868 1375.03 180.174C1374.62 179.479 1374.42 178.726 1374.42 177.916C1374.42 176.498 1375.01 175.34 1376.21 174.443C1377.4 173.546 1379.12 173.097 1381.36 173.097C1382.69 173.097 1383.89 173.242 1384.93 173.531C1386.01 173.821 1386.94 174.255 1387.72 174.834L1389.08 180.999H1397.89L1397.76 168.148C1395.75 167.048 1393.27 166.165 1390.3 165.499C1387.36 164.805 1384.12 164.457 1380.57 164.457C1376.32 164.457 1372.83 165.109 1370.1 166.411C1367.39 167.713 1365.37 169.436 1364.04 171.577C1362.73 173.719 1362.07 176.093 1362.07 178.698C1362.07 182.489 1363.4 185.601 1366.04 188.032C1368.69 190.463 1372.8 192.258 1378.39 193.415C1382.08 194.168 1384.54 195.051 1385.76 196.064C1387.01 197.048 1387.64 198.191 1387.64 199.493C1387.64 200.883 1387.06 202.041 1385.89 202.967C1384.73 203.893 1382.72 204.356 1379.87 204.356C1378.36 204.356 1377.01 204.211 1375.81 203.922C1374.65 203.632 1373.58 203.242 1372.59 202.75L1370.88 195.977H1362.03L1362.16 209.262C1364.95 210.507 1367.86 211.462 1370.88 212.127Z" fill="#0F0F0F"/>
<path d="M1440.6 209.219C1445.05 211.823 1450.43 213.126 1456.74 213.126C1461.98 213.126 1466.57 212.518 1470.53 211.302C1474.51 210.087 1477.92 208.48 1480.74 206.483V180.912H1458.88V189.812L1467.95 190.507V201.23C1466.73 201.838 1465.18 202.359 1463.29 202.793C1461.42 203.198 1459.37 203.401 1457.13 203.401C1453.32 203.401 1450.11 202.533 1447.49 200.796C1444.88 199.059 1442.88 196.614 1441.52 193.459C1440.18 190.275 1439.51 186.541 1439.51 182.258V180C1439.51 175.601 1440.19 171.751 1441.56 168.452C1442.93 165.123 1444.89 162.533 1447.45 160.68C1450.04 158.799 1453.11 157.858 1456.65 157.858C1459.13 157.858 1461.32 158.162 1463.24 158.77C1465.16 159.349 1466.69 160.13 1467.82 161.114L1469.61 169.58H1479.04V155.557C1476.07 153.068 1472.58 151.201 1468.57 149.957C1464.55 148.712 1460.26 148.09 1455.7 148.09C1449.79 148.09 1444.67 149.45 1440.34 152.171C1436.03 154.863 1432.7 158.611 1430.35 163.415C1427.99 168.22 1426.81 173.777 1426.81 180.087V182.258C1426.81 188.365 1427.99 193.734 1430.35 198.365C1432.73 202.996 1436.15 206.614 1440.6 209.219Z" fill="#0F0F0F"/>
<path fill-rule="evenodd" clip-rule="evenodd" d="M1492.08 209.392C1494.84 211.881 1498.57 213.126 1503.25 213.126C1506.01 213.126 1508.41 212.562 1510.45 211.433C1512.51 210.275 1514.3 208.741 1515.81 206.831C1515.96 207.757 1516.19 208.683 1516.51 209.609C1516.83 210.535 1517.15 211.404 1517.47 212.214H1533.26V204.617L1528.33 203.922C1528.25 203.343 1528.19 202.75 1528.16 202.142V180.868C1528.16 175.572 1526.37 171.505 1522.79 168.669C1519.22 165.803 1514.34 164.37 1508.18 164.37C1504.63 164.37 1501.42 164.805 1498.54 165.673C1495.66 166.541 1492.98 167.67 1490.51 169.059L1490.68 181.259H1499.85L1500.85 175.051C1501.75 174.443 1502.74 173.98 1503.82 173.661C1504.89 173.314 1506.11 173.14 1507.48 173.14C1510.13 173.14 1512.1 173.849 1513.41 175.268C1514.75 176.657 1515.42 178.48 1515.42 180.738V184.211H1509.18C1504.56 184.211 1500.66 184.848 1497.49 186.122C1494.35 187.395 1491.96 189.146 1490.33 191.375C1488.74 193.603 1487.94 196.194 1487.94 199.146C1487.94 203.459 1489.32 206.874 1492.08 209.392ZM1511.71 202.576C1510.11 203.357 1508.43 203.748 1506.65 203.748C1504.76 203.748 1503.28 203.3 1502.2 202.402C1501.15 201.476 1500.63 200.174 1500.63 198.495C1500.63 196.7 1501.34 195.166 1502.77 193.893C1504.22 192.619 1506.35 191.983 1509.14 191.983H1515.42V199.407C1514.55 200.709 1513.31 201.766 1511.71 202.576Z" fill="#0F0F0F"/>
<path d="M0 212.214H3.66465V204.617L0 203.748V212.214Z" fill="#0F0F0F"/>
<path d="M0 176.278C0.431503 175.909 0.896855 175.587 1.39606 175.311C2.70486 174.588 4.26088 174.226 6.06412 174.226C8.30363 174.226 9.99054 174.92 11.1248 176.31C12.2882 177.699 12.8699 180.087 12.8699 183.473V203.314L7.72194 204.617V212.214H30.7133V204.617L25.5653 203.314V180.304C26.1761 178.48 27.165 177.019 28.5319 175.919C29.8989 174.79 31.5713 174.226 33.549 174.226C35.7303 174.226 37.3882 174.906 38.5225 176.266C39.6858 177.598 40.2675 180 40.2675 183.473V203.314L34.7706 204.617V212.214H59.1579V204.617L53.0066 203.314V183.517C53.0066 177.062 51.6541 172.258 48.9493 169.103C46.2735 165.948 42.6088 164.37 37.9553 164.37C34.8142 164.37 32.0802 165.08 29.7535 166.498C27.4267 167.916 25.5362 169.884 24.082 172.402C23.0059 169.711 21.3771 167.699 19.1958 166.368C17.0435 165.036 14.455 164.37 11.4302 164.37C8.43451 164.37 5.78782 164.993 3.49014 166.237C2.20552 166.926 1.04214 167.781 0 168.804V176.278Z" fill="#0F0F0F"/>
<path fill-rule="evenodd" clip-rule="evenodd" d="M83.6326 211.433C85.6976 212.562 88.1988 213.126 91.1364 213.126C94.9755 213.126 98.233 212.171 100.909 210.26C103.585 208.35 105.62 205.673 107.017 202.229C108.413 198.755 109.111 194.689 109.111 190.029V189.117C109.111 184.11 108.413 179.754 107.017 176.049C105.62 172.344 103.585 169.479 100.909 167.453C98.2621 165.398 95.0337 164.37 91.2236 164.37C88.5769 164.37 86.2502 164.877 84.2433 165.89C82.2656 166.903 80.5932 168.35 79.2263 170.232V144.486H59.7687V152.127L66.5309 153.43V212.214H77.5248L78.441 206.44C79.837 208.611 81.5676 210.275 83.6326 211.433ZM94.2775 199.841C92.8524 202.127 90.5111 203.271 87.2536 203.271C85.4794 203.271 83.9089 202.894 82.5419 202.142C81.204 201.389 80.0988 200.289 79.2263 198.842V179.219C80.0115 177.685 81.0877 176.469 82.4546 175.572C83.8216 174.674 85.4649 174.226 87.3845 174.226C89.5076 174.226 91.2236 174.834 92.5324 176.049C93.8703 177.265 94.8446 178.987 95.4554 181.216C96.0953 183.415 96.4152 186.049 96.4152 189.117V190.029C96.4152 194.255 95.7026 197.525 94.2775 199.841Z" fill="#0F0F0F"/>
<path d="M113.473 204.617V212.214H138.515V204.617L132.364 203.314V144.486H112.819V152.127L119.625 153.43V203.314L113.473 204.617Z" fill="#0F0F0F"/>
<path fill-rule="evenodd" clip-rule="evenodd" d="M152.607 210.174C155.98 212.142 159.921 213.126 164.429 213.126C168.239 213.126 171.613 212.619 174.551 211.606C177.517 210.564 179.975 209.262 181.924 207.699L178.477 199.884C176.558 201.042 174.58 201.925 172.544 202.533C170.537 203.111 168.37 203.401 166.044 203.401C163.804 203.401 161.899 202.952 160.328 202.055C158.758 201.129 157.536 199.87 156.664 198.278C155.82 196.657 155.311 194.819 155.137 192.764L155.224 192.504H182.971V185.601C182.971 181.114 182.215 177.294 180.702 174.139C179.19 170.984 176.979 168.567 174.071 166.889C171.162 165.21 167.571 164.37 163.295 164.37C158.961 164.342 155.195 165.369 151.996 167.453C148.826 169.508 146.368 172.344 144.623 175.962C142.878 179.551 142.005 183.676 142.005 188.336V190.072C142.005 194.53 142.921 198.495 144.754 201.968C146.615 205.441 149.233 208.177 152.607 210.174ZM171.061 184.124H155.311L155.181 183.907C155.413 181.968 155.849 180.232 156.489 178.698C157.158 177.164 158.074 175.962 159.238 175.094C160.401 174.197 161.826 173.748 163.513 173.748C165.287 173.748 166.727 174.124 167.832 174.877C168.967 175.63 169.781 176.7 170.275 178.09C170.799 179.45 171.061 181.085 171.061 182.996V184.124Z" fill="#0F0F0F"/>
</svg>
