<svg width="16" height="16" viewBox="0 0 16 16" fill="none" xmlns="http://www.w3.org/2000/svg">
<path d="M8.08 12.66C8.29333 12.66 8.47333 12.5867 8.62 12.44C8.76667 12.2933 8.84 12.1133 8.84 11.9C8.84 11.6867 8.76667 11.5067 8.62 11.36C8.47333 11.2133 8.29333 11.14 8.08 11.14C7.86667 11.14 7.68667 11.2133 7.54 11.36C7.39333 11.5067 7.32 11.6867 7.32 11.9C7.32 12.1133 7.39333 12.2933 7.54 12.44C7.68667 12.5867 7.86667 12.66 8.08 12.66ZM7.38 9.74H8.56C8.56 9.39333 8.60333 9.07667 8.69 8.79C8.77667 8.50333 9.04667 8.17333 9.5 7.8C9.91333 7.45333 10.2067 7.11333 10.38 6.78C10.5533 6.44667 10.64 6.08 10.64 5.68C10.64 4.97333 10.41 4.40667 9.95 3.98C9.49 3.55333 8.88 3.34 8.12 3.34C7.46667 3.34 6.89 3.50333 6.39 3.83C5.89 4.15667 5.52667 4.60667 5.3 5.18L6.36 5.58C6.50667 5.20667 6.72667 4.91667 7.02 4.71C7.31333 4.50333 7.66 4.4 8.06 4.4C8.51333 4.4 8.88 4.52333 9.16 4.77C9.44 5.01667 9.58 5.33333 9.58 5.72C9.58 6.01333 9.49333 6.29 9.32 6.55C9.14667 6.81 8.89333 7.08 8.56 7.36C8.16 7.70667 7.86333 8.05 7.67 8.39C7.47667 8.73 7.38 9.18 7.38 9.74ZM8 16C6.90667 16 5.87333 15.79 4.9 15.37C3.92667 14.95 3.07667 14.3767 2.35 13.65C1.62333 12.9233 1.05 12.0733 0.63 11.1C0.21 10.1267 0 9.09333 0 8C0 6.89333 0.21 5.85333 0.63 4.88C1.05 3.90667 1.62333 3.06 2.35 2.34C3.07667 1.62 3.92667 1.05 4.9 0.63C5.87333 0.21 6.90667 0 8 0C9.10667 0 10.1467 0.21 11.12 0.63C12.0933 1.05 12.94 1.62 13.66 2.34C14.38 3.06 14.95 3.90667 15.37 4.88C15.79 5.85333 16 6.89333 16 8C16 9.09333 15.79 10.1267 15.37 11.1C14.95 12.0733 14.38 12.9233 13.66 13.65C12.94 14.3767 12.0933 14.95 11.12 15.37C10.1467 15.79 9.10667 16 8 16ZM8 14.8C9.89333 14.8 11.5 14.1367 12.82 12.81C14.14 11.4833 14.8 9.88 14.8 8C14.8 6.10667 14.14 4.5 12.82 3.18C11.5 1.86 9.89333 1.2 8 1.2C6.12 1.2 4.51667 1.86 3.19 3.18C1.86333 4.5 1.2 6.10667 1.2 8C1.2 9.88 1.86333 11.4833 3.19 12.81C4.51667 14.1367 6.12 14.8 8 14.8Z" fill="#B3B3B3"/>
</svg>
