<svg width="53" height="66" viewBox="0 0 53 66" fill="none" xmlns="http://www.w3.org/2000/svg">
<path d="M12.9188 61.05H40.0813V50.5725C40.0813 46.7225 38.7701 43.4088 36.1477 40.6313C33.5253 37.8538 30.3094 36.465 26.5 36.465C22.6906 36.465 19.4747 37.8538 16.8523 40.6313C14.2299 43.4088 12.9188 46.7225 12.9188 50.5725V61.05ZM26.5 29.535C30.3094 29.535 33.5253 28.1463 36.1477 25.3688C38.7701 22.5913 40.0813 19.25 40.0813 15.345V4.95H12.9188V15.345C12.9188 19.25 14.2299 22.5913 16.8523 25.3688C19.4747 28.1463 22.6906 29.535 26.5 29.535ZM0 66V61.05H7.95V50.5725C7.95 46.7225 8.95755 43.1888 10.9727 39.9713C12.9878 36.7538 15.7896 34.43 19.3781 33C15.7896 31.57 12.9878 29.2325 10.9727 25.9875C8.95755 22.7425 7.95 19.195 7.95 15.345V4.95H0V0H53V4.95H45.05V15.345C45.05 19.195 44.0424 22.7425 42.0273 25.9875C40.0122 29.2325 37.2104 31.57 33.6219 33C37.2104 34.43 40.0122 36.7538 42.0273 39.9713C44.0424 43.1888 45.05 46.7225 45.05 50.5725V61.05H53V66H0Z" fill="white"/>
</svg>
