<svg width="24" height="22" viewBox="0 0 24 22" fill="none" xmlns="http://www.w3.org/2000/svg">
<path d="M16.8 10.4211C17.14 10.4211 17.425 10.3101 17.655 10.0882C17.885 9.86623 18 9.59123 18 9.26316C18 8.93509 17.885 8.66009 17.655 8.43816C17.425 8.21623 17.14 8.10526 16.8 8.10526C16.46 8.10526 16.175 8.21623 15.945 8.43816C15.715 8.66009 15.6 8.93509 15.6 9.26316C15.6 9.59123 15.715 9.86623 15.945 10.0882C16.175 10.3101 16.46 10.4211 16.8 10.4211ZM7.2 7.52632H13.2V5.78947H7.2V7.52632ZM3 22C2.32 19.8 1.65 17.6048 0.99 15.4145C0.33 13.2241 0 10.9807 0 8.68421C0 6.90877 0.64 5.40351 1.92 4.16842C3.2 2.93333 4.76 2.31579 6.6 2.31579H12.6C13.18 1.58246 13.885 1.01316 14.715 0.607895C15.545 0.202632 16.44 0 17.4 0C17.9 0 18.325 0.16886 18.675 0.506579C19.025 0.844298 19.2 1.25439 19.2 1.73684C19.2 1.85263 19.185 1.96842 19.155 2.08421C19.125 2.2 19.09 2.30614 19.05 2.40263C18.97 2.61491 18.895 2.83202 18.825 3.05395C18.755 3.27588 18.7 3.50263 18.66 3.73421L21.39 6.36842H24V14.4447L20.61 15.5158L18.6 22H12V19.6842H9.6V22H3ZM4.35 20.2632H7.8V17.9474H13.8V20.2632H17.25L19.14 14.1842L22.2 13.1711V8.10526H20.64L16.8 4.4C16.82 3.91754 16.885 3.44956 16.995 2.99605C17.105 2.54254 17.22 2.08421 17.34 1.62105C16.58 1.81404 15.86 2.09868 15.18 2.475C14.5 2.85132 13.98 3.37719 13.62 4.05263H6.6C5.27428 4.05263 4.14285 4.50476 3.20571 5.40902C2.26857 6.31328 1.8 7.40501 1.8 8.68421C1.8 10.675 2.09 12.62 2.67 14.5194C3.25 16.4187 3.81 18.3333 4.35 20.2632Z" fill="black"/>
</svg>
