<svg width="12" height="12" viewBox="0 0 12 12" fill="none" xmlns="http://www.w3.org/2000/svg">
<path d="M6 12C4.3375 12 2.92188 11.4156 1.75313 10.2469C0.584375 9.07812 0 7.6625 0 6C0 4.3375 0.584375 2.92188 1.75313 1.75313C2.92188 0.584375 4.3375 0 6 0C7.0625 0 7.99375 0.215625 8.79375 0.646875C9.59375 1.07812 10.2875 1.66875 10.875 2.41875V0H12V4.7625H7.2375V3.6375H10.3875C9.9125 2.8875 9.30625 2.28125 8.56875 1.81875C7.83125 1.35625 6.975 1.125 6 1.125C4.6375 1.125 3.48438 1.59688 2.54063 2.54063C1.59688 3.48438 1.125 4.6375 1.125 6C1.125 7.3625 1.59688 8.51562 2.54063 9.45938C3.48438 10.4031 4.6375 10.875 6 10.875C7.0375 10.875 7.9875 10.5781 8.85 9.98438C9.7125 9.39062 10.3125 8.60625 10.65 7.63125H11.8125C11.45 8.94375 10.7313 10 9.65625 10.8C8.58125 11.6 7.3625 12 6 12Z" fill="#B3B3B3"/>
</svg>
