<svg width="23" height="24" viewBox="0 0 23 24" fill="none" xmlns="http://www.w3.org/2000/svg">
<path d="M14.9043 24C14.6333 24 14.3962 23.9 14.1929 23.7C13.9897 23.5 13.8881 23.2667 13.8881 23C13.8881 22.7111 13.9897 22.4722 14.1929 22.2833C14.3962 22.0944 14.6333 22 14.9043 22C16.2366 22 17.3601 21.7333 18.2747 21.2C19.1892 20.6667 19.6465 20.0444 19.6465 19.3333C19.6465 18.8222 19.3134 18.3222 18.6473 17.8333C17.9811 17.3444 17.0835 16.9667 15.9543 16.7L17.5464 15.1333C18.9691 15.5556 20.0135 16.1389 20.6797 16.8833C21.3459 17.6278 21.6789 18.4444 21.6789 19.3333C21.6789 20.8222 20.9902 21.9722 19.6127 22.7833C18.2351 23.5944 16.6657 24 14.9043 24ZM4.0648 14.2C2.61954 13.8889 1.58076 13.4 0.948454 12.7333C0.316151 12.0667 0 11.3778 0 10.6667C0 9.88889 0.293569 9.18889 0.880707 8.56667C1.46784 7.94444 2.82278 7.25556 4.94551 6.5C6.43594 5.96667 7.39568 5.53333 7.82474 5.2C8.2538 4.86667 8.46834 4.47778 8.46834 4.03333C8.46834 3.47778 8.21993 3 7.72312 2.6C7.22631 2.2 6.45852 2 5.41973 2C4.81001 2 4.29062 2.07778 3.86156 2.23333C3.4325 2.38889 3.0486 2.63333 2.70987 2.96667C2.52921 3.14444 2.29774 3.25 2.01546 3.28333C1.73319 3.31667 1.47914 3.24444 1.25331 3.06667C1.00491 2.88889 0.875061 2.66667 0.86377 2.4C0.852479 2.13333 0.937162 1.9 1.11782 1.7C1.50172 1.21111 2.07756 0.805556 2.84536 0.483333C3.61316 0.161111 4.47128 0 5.41973 0C6.95533 0 8.18606 0.361111 9.11193 1.08333C10.0378 1.80556 10.5007 2.78889 10.5007 4.03333C10.5007 4.94444 10.1789 5.71667 9.53535 6.35C8.89175 6.98333 7.63279 7.64444 5.75847 8.33333C4.24546 8.88889 3.2462 9.32778 2.76068 9.65C2.27516 9.97222 2.0324 10.3111 2.0324 10.6667C2.0324 11.0222 2.33726 11.3611 2.94698 11.6833C3.5567 12.0056 4.47128 12.3111 5.69072 12.6L4.0648 14.2ZM20.866 9.06667L16.5302 4.8L18.0545 3.3C18.461 2.9 18.9126 2.7 19.4094 2.7C19.9062 2.7 20.3579 2.9 20.7644 3.3L22.3903 4.9C22.7968 5.3 23 5.74444 23 6.23333C23 6.72222 22.7968 7.16667 22.3903 7.56667L20.866 9.06667ZM3.38733 22H4.81001L16.4963 10.5L15.0736 9.1L3.38733 20.6V22ZM1.35493 24V19.7333L15.0736 6.23333L19.4094 10.5L5.69072 24H1.35493Z" fill="#B3B3B3"/>
</svg>
