<svg width="137" height="32" viewBox="0 0 137 32" fill="none" xmlns="http://www.w3.org/2000/svg">
<path fill-rule="evenodd" clip-rule="evenodd" d="M99.8132 30.5C99.4283 31.1667 99.9094 32 100.679 32H135.32C136.09 32 136.571 31.1667 136.186 30.5L118.866 0.499999C118.481 -0.166668 117.519 -0.166665 117.134 0.500001L99.8132 30.5ZM118 7L105.875 28H130.124L118 7Z" fill="#CDCDCD"/>
<path fill-rule="evenodd" clip-rule="evenodd" d="M4 4V28H28V4H4ZM1 0C0.447715 0 0 0.447715 0 1V31C0 31.5523 0.447715 32 1 32H31C31.5523 32 32 31.5523 32 31V1C32 0.447715 31.5523 0 31 0H1Z" fill="#CDCDCD"/>
<path fill-rule="evenodd" clip-rule="evenodd" d="M68 28C74.6274 28 80 22.6274 80 16C80 9.37258 74.6274 4 68 4C61.3726 4 56 9.37258 56 16C56 22.6274 61.3726 28 68 28ZM68 32C76.8366 32 84 24.8366 84 16C84 7.16344 76.8366 0 68 0C59.1634 0 52 7.16344 52 16C52 24.8366 59.1634 32 68 32Z" fill="#CDCDCD"/>
</svg>
